<svg width="66" height="10" viewBox="0 0 66 10" fill="none" xmlns="http://www.w3.org/2000/svg">
<path fill-rule="evenodd" clip-rule="evenodd" d="M12.8561 0.0253906C10.0209 0.0253906 7.94516 2.11165 7.94516 5.0085C7.94516 6.138 8.26159 7.13462 8.8185 7.94521H1.76851C1.22426 7.94521 0.793915 8.4103 0.793915 8.96841V9.99161H12.8561H12.8688C15.704 9.99161 17.7671 7.90534 17.7671 5.0085C17.7544 2.11165 15.704 0.0253906 12.8561 0.0253906ZM12.8435 8.25084C11.1474 8.25084 9.90701 6.90872 9.90701 5.0085C9.90701 3.13485 11.1347 1.76616 12.8435 1.76616C14.5648 1.76616 15.7926 3.13485 15.7926 5.0085C15.7926 6.90872 14.5648 8.25084 12.8435 8.25084ZM29.3869 5.0085C29.3869 7.90534 27.3365 9.99161 24.4886 9.99161C21.6534 9.99161 19.5776 7.90534 19.5776 5.0085C19.5776 2.11165 21.6534 0.0253906 24.4886 0.0253906C27.3238 0.0253906 29.3869 2.11165 29.3869 5.0085ZM21.5395 5.0085C21.5395 6.90872 22.7672 8.25084 24.4759 8.25084C26.1973 8.25084 27.4251 6.90872 27.4251 5.0085C27.4251 3.13485 26.1973 1.76616 24.4759 1.76616C22.7672 1.76616 21.5395 3.13485 21.5395 5.0085ZM39.7537 4.26435V8.96841H39.7157V9.99161H38.7411C38.2095 9.99161 37.7665 9.53981 37.7665 8.96841V4.26435C37.7665 2.72291 36.8552 1.713 35.4503 1.713C34.0453 1.713 33.134 2.7362 33.134 4.26435V9.99161H32.1594C31.6278 9.99161 31.1848 9.53981 31.1848 8.96841V4.26435C31.1848 1.73958 32.9188 0.0253906 35.4503 0.0253906C38.007 0.0253906 39.7537 1.73958 39.7537 4.26435ZM50.119 0.849264V0.0253906H49.1571C48.6128 0.0253906 48.1825 0.490481 48.1825 1.04859V5.76593C48.1825 7.29408 47.2458 8.29071 45.8409 8.29071C44.4359 8.29071 43.5246 7.29408 43.5246 5.76593V4.59656V1.24791V0.849264V0.0253906H42.5627C42.0184 0.0253906 41.5881 0.477192 41.5881 1.04859V5.77922C41.5881 8.29071 43.3221 9.99161 45.8662 9.99161C48.3976 9.99161 50.1317 8.27742 50.1317 5.77922V3.37404V1.24791L50.119 0.849264ZM58.7647 1.87246C59.3343 0.716382 60.4987 0.0253906 61.9796 0.0253906C64.1566 0.0253906 65.5869 1.55354 65.5742 3.87899V9.99161H64.5996C64.068 9.99161 63.625 9.53981 63.625 8.96841V3.82584C63.625 2.53688 62.8656 1.65985 61.6885 1.65985C60.5114 1.65985 59.7266 2.53688 59.7266 3.82584V7.30737V8.76908V9.16773V9.84544V9.99161H58.7647C58.2331 9.99161 57.7901 9.53981 57.7901 8.96841V3.82584C57.7901 2.53688 57.0053 1.65985 55.8282 1.65985C54.6511 1.65985 53.8917 2.53688 53.8917 3.82584V8.95512V9.97832H52.9171C52.3855 9.97832 51.9425 9.52652 51.9425 8.95512V3.87899C51.9425 1.55354 53.3601 0.0253906 55.5498 0.0253906C57.0307 0.0253906 58.1951 0.716382 58.7647 1.87246Z" fill="black"/>
</svg>
